# xmcd CD database file
#
# Track frame offsets:
#	150
#	32013
#	46787
#	77595
#	103897
#	126574
#	142521
#	171716
#	187756
#	218269
#
# Disc length: 3398 seconds
#
# Revision: 0
# Processed by: cddbd v1.5.2PL0 Copyright (c) Steve Scherf et al.
# Submitted via: CDex 1.51
#
DISCID=7d0d440a
DTITLE=François Jeanneau - Quand se taisent les oiseaux
DYEAR=2007
DGENRE=Jazz
TTITLE0=Alerte 3
TTITLE1=Rumeurs
TTITLE2=Quand se taisent les oiseaux
TTITLE3=Ninki
TTITLE4=L'envol d'Eole
TTITLE5=L'oeil du cyclone
TTITLE6=Au dehors, les éléments
TTITLE7=Tourmentes
TTITLE8=Tara
TTITLE9=L'embellie
EXTD=YEAR: 2007
EXTT0=
EXTT1=
EXTT2=
EXTT3=
EXTT4=
EXTT5=
EXTT6=
EXTT7=
EXTT8=
EXTT9=
PLAYORDER=
